<?xml version="1.0" encoding="UTF-8" standalone="no"?>
<!DOCTYPE svg PUBLIC "-//W3C//DTD SVG 1.1//EN" "http://www.w3.org/Graphics/SVG/1.1/DTD/svg11.dtd">
<svg xmlns="http://www.w3.org/2000/svg" version="1.1" viewBox="0.00 0.00 179.00 224.00">
<g stroke-width="2.00" fill="none" stroke-linecap="butt">
<path stroke="#8b907a" vector-effect="non-scaling-stroke" d="
  M 100.31 3.09
  Q 95.79 2.39 91.45 4.21"
/>
<path stroke="#8b907a" vector-effect="non-scaling-stroke" d="
  M 105.71 5.06
  Q 115.33 12.68 111.31 25.60"
/>
<path stroke="#ffe671" vector-effect="non-scaling-stroke" d="
  M 111.31 25.60
  Q 109.76 22.51 108.90 19.10
  Q 108.23 16.45 104.68 13.52
  Q 99.41 9.17 93.32 12.30
  A 25.56 25.42 -77.2 0 0 89.62 14.64
  Q 87.16 16.50 84.46 22.84"
/>
<path stroke="#8b907a" vector-effect="non-scaling-stroke" d="
  M 84.46 22.84
  Q 80.68 10.49 91.51 4.05"
/>
<path stroke="#8b7919" vector-effect="non-scaling-stroke" d="
  M 84.46 22.84
  Q 84.56 76.98 84.49 98.50
  Q 84.49 99.27 83.72 100.39"
/>
<path stroke="#8b7213" vector-effect="non-scaling-stroke" d="
  M 83.72 100.39
  Q 81.08 103.12 78.19 101.87
  C 74.78 100.39 75.12 96.51 75.15 94.00
  Q 75.47 69.82 75.34 44.50
  Q 75.31 39.73 74.70 35.04"
/>
<path stroke="#8b907a" vector-effect="non-scaling-stroke" d="
  M 74.70 35.04
  L 74.95 28.50"
/>
<path stroke="#8b907a" vector-effect="non-scaling-stroke" d="
  M 139.12 22.04
  C 132.94 18.63 124.48 19.24 121.39 26.14
  Q 120.46 28.20 120.56 31.50
  Q 120.64 34.23 120.86 36.99"
/>
<path stroke="#8b7213" vector-effect="non-scaling-stroke" d="
  M 120.86 36.99
  Q 120.30 57.52 120.94 77.99
  Q 121.05 81.34 118.31 82.35
  Q 114.29 83.84 112.03 80.22"
/>
<path stroke="#8b7919" vector-effect="non-scaling-stroke" d="
  M 112.03 80.22
  Q 111.31 78.45 111.33 76.50
  Q 111.53 50.87 111.31 25.60"
/>
<path stroke="#ffc80b" vector-effect="non-scaling-stroke" d="
  M 112.03 80.22
  Q 111.36 80.49 111.69 81.29
  Q 111.85 81.67 111.43 81.66
  Q 110.54 81.61 109.87 82.30
  Q 109.53 82.66 109.04 82.78
  Q 107.24 83.23 105.42 82.93
  Q 105.01 82.86 104.61 82.91
  Q 104.24 82.96 103.95 83.18
  Q 103.52 83.51 103.05 83.24
  Q 100.77 81.93 98.12 82.47
  Q 94.11 83.28 90.78 81.00
  Q 90.36 80.71 89.89 80.87
  A 0.39 0.38 -17.9 0 1 89.41 80.63
  Q 89.05 79.63 88.02 79.60
  A 0.64 0.64 0.0 0 1 87.46 79.24
  L 86.87 78.04
  Q 86.44 77.17 86.41 78.14
  Q 86.34 80.41 86.40 82.61
  Q 86.41 82.69 86.34 82.66
  Q 86.30 82.64 86.28 82.60
  Q 86.24 82.55 86.24 82.48
  Q 86.26 81.76 86.26 81.07
  Q 86.26 80.98 86.17 80.96
  Q 86.12 80.95 86.09 81.00
  Q 86.07 81.05 86.07 81.09
  Q 86.26 91.51 85.65 97.88
  Q 85.44 100.00 83.72 100.39"
/>
<path stroke="#8b907a" vector-effect="non-scaling-stroke" d="
  M 103.59 3.97
  Q 101.87 3.86 100.65 3.04"
/>
<path stroke="#8b907a" vector-effect="non-scaling-stroke" d="
  M 69.61 21.16
  Q 71.66 22.65 73.10 24.62
  C 73.81 25.58 73.91 26.88 74.88 27.83"
/>
<path stroke="#ffdf6c" vector-effect="non-scaling-stroke" d="
  M 74.70 35.04
  Q 74.78 36.65 73.27 36.79
  A 1.71 1.70 -14.8 0 1 71.56 35.80
  C 68.86 29.96 64.05 24.70 57.43 30.37
  Q 54.60 32.79 52.28 35.67
  A 2.57 2.23 -65.9 0 1 50.23 36.62
  Q 49.86 36.58 49.80 35.28"
/>
<path stroke="#8b907a" vector-effect="non-scaling-stroke" d="
  M 49.80 35.28
  Q 49.30 24.61 58.26 20.13"
/>
<path stroke="#ffdf6c" vector-effect="non-scaling-stroke" d="
  M 153.19 62.01
  Q 153.38 62.83 153.74 63.24
  Q 154.10 63.63 154.60 63.46
  Q 156.83 62.69 157.65 61.90
  Q 160.31 59.35 163.68 57.28
  Q 164.12 57.02 164.62 57.11
  Q 166.49 57.46 168.36 57.71
  Q 169.87 57.92 171.97 58.87
  Q 173.90 59.75 175.75 59.85"
/>
<path stroke="#ff9e04" vector-effect="non-scaling-stroke" d="
  M 176.46 70.65
  L 165.74 70.08
  A 1.23 1.22 -88.0 0 0 164.45 71.29
  L 163.82 115.98"
/>
<path stroke="#fd8b04" vector-effect="non-scaling-stroke" d="
  M 163.82 115.98
  Q 163.46 125.02 160.55 133.28"
/>
<path stroke="#ffba05" vector-effect="non-scaling-stroke" d="
  M 160.55 133.28
  Q 159.59 133.76 158.68 135.78
  A 0.03 0.03 0.0 0 1 158.62 135.78
  Q 158.44 134.46 157.17 134.92
  Q 154.33 135.94 152.47 134.70
  A 0.54 0.53 42.8 0 0 151.85 134.72
  Q 151.53 134.98 151.22 134.77
  Q 151.01 134.62 150.76 134.55
  C 147.85 133.75 145.60 134.66 142.76 134.23
  C 141.04 133.97 139.67 135.03 137.89 134.41
  Q 136.35 133.87 134.63 134.16
  A 1.87 1.86 -7.8 0 1 132.46 132.52
  L 132.36 131.53"
/>
<path stroke="#fd8b04" vector-effect="non-scaling-stroke" d="
  M 132.36 131.53
  Q 133.67 118.19 127.85 106.22
  Q 127.29 105.08 126.16 104.26
  A 0.55 0.55 0.0 0 0 125.29 104.75
  C 125.83 110.88 121.84 117.77 117.58 121.72
  Q 113.93 125.10 109.87 128.70
  A 0.40 0.40 0.0 0 0 109.92 129.33
  Q 114.03 132.13 114.46 136.45
  C 114.90 140.88 113.89 145.02 110.20 147.96
  Q 104.55 152.48 97.97 149.59
  Q 92.06 147.00 90.39 141.97
  C 88.22 135.49 91.86 130.13 97.71 127.17
  C 103.63 124.18 109.01 121.27 113.74 116.24
  C 124.23 105.08 115.19 92.67 105.43 85.86
  Q 104.43 85.16 104.96 86.26
  C 108.37 93.37 110.37 101.19 105.32 108.04
  Q 102.52 111.84 100.01 113.56
  Q 93.51 118.03 86.97 122.44
  Q 84.59 124.05 81.76 128.09"
/>
<path stroke="#ffba05" vector-effect="non-scaling-stroke" d="
  M 81.76 128.09
  Q 77.93 128.44 75.76 127.32
  Q 74.63 126.74 73.70 126.62
  Q 71.89 126.40 71.84 126.38
  Q 67.12 125.15 62.62 124.68
  Q 61.96 124.61 61.37 124.94
  Q 60.09 125.65 59.12 124.50
  Q 58.78 124.10 58.27 124.21
  Q 55.63 124.78 53.94 126.47
  Q 53.61 126.80 53.14 126.76
  Q 51.85 126.66 50.99 127.70
  Q 50.55 128.22 49.85 128.14
  Q 49.51 128.10 49.16 128.12
  Q 42.55 128.45 35.68 128.58
  Q 34.32 128.61 33.03 128.95
  Q 31.57 129.35 29.90 129.03
  Q 29.72 129.00 29.63 128.83
  Q 29.60 128.76 29.63 128.70
  Q 29.85 128.12 29.20 128.12
  Q 26.98 128.12 24.68 128.12"
/>
<path stroke="#fd8b04" vector-effect="non-scaling-stroke" d="
  M 24.68 128.12
  Q 19.68 118.21 18.15 115.58
  Q 13.49 107.58 11.33 102.42
  Q 11.03 101.71 9.95 101.11"
/>
<path stroke="#ffdf6c" vector-effect="non-scaling-stroke" d="
  M 9.95 101.11
  Q 10.12 101.05 10.23 100.97
  Q 10.48 100.80 10.44 100.49
  Q 9.50 93.75 14.98 89.27
  C 19.13 85.88 25.20 85.82 29.04 89.77
  Q 32.07 92.87 33.93 96.19
  Q 38.92 105.09 43.84 114.12
  Q 45.84 117.79 48.81 121.17
  Q 51.43 124.14 54.70 122.22
  Q 56.42 121.20 57.27 119.48"
/>
<path stroke="#8b907a" vector-effect="non-scaling-stroke" d="
  M 139.12 22.04
  Q 146.30 27.59 144.62 37.58"
/>
<path stroke="#ffdf6c" vector-effect="non-scaling-stroke" d="
  M 144.62 37.58
  Q 143.15 35.96 142.69 32.55
  Q 142.63 32.06 142.30 31.69
  Q 138.85 27.82 133.46 27.89
  Q 130.90 27.92 129.03 29.75
  C 126.36 32.36 124.38 34.83 120.86 36.99"
/>
<path stroke="#8b907a" vector-effect="non-scaling-stroke" d="
  M 7.86 84.09
  Q 1.48 91.25 2.84 100.75
  Q 2.91 101.23 3.44 101.54"
/>
<path stroke="#893b12" vector-effect="non-scaling-stroke" d="
  M 3.44 101.54
  Q 3.20 102.31 3.50 103.26
  Q 5.16 108.57 7.60 113.86
  Q 16.26 132.68 25.26 151.77
  C 28.42 158.45 32.57 165.03 37.98 170.04
  C 41.13 172.95 44.13 176.25 48.02 178.11
  A 1.89 1.89 0.0 0 1 49.09 179.83
  L 49.05 185.52
  A 1.72 1.71 -90.0 0 0 50.77 187.25
  L 147.00 186.80
  Q 147.90 186.80 147.89 185.89
  Q 147.85 182.50 148.30 179.14
  Q 148.38 178.52 148.92 178.19
  C 167.55 166.79 177.28 142.64 176.21 121.21"
/>
<path stroke="#8b4f12" vector-effect="non-scaling-stroke" d="
  M 176.21 121.21
  L 176.46 70.65"
/>
<path stroke="#8b7213" vector-effect="non-scaling-stroke" d="
  M 176.46 70.65
  Q 177.13 64.34 175.75 59.85"
/>
<path stroke="#8b907a" vector-effect="non-scaling-stroke" d="
  M 175.75 59.85
  Q 173.92 54.20 170.24 51.71
  Q 160.49 45.11 154.09 55.04
  Q 152.47 57.55 153.19 62.01"
/>
<path stroke="#8b7213" vector-effect="non-scaling-stroke" d="
  M 153.19 62.01
  Q 152.90 79.66 152.69 98.31
  Q 152.65 101.83 148.37 102.73
  Q 148.25 102.76 148.13 102.73
  Q 143.89 101.59 143.85 97.85
  Q 143.48 66.98 144.62 37.58"
/>
<path stroke="#8b7213" vector-effect="non-scaling-stroke" d="
  M 49.80 35.28
  Q 49.25 61.45 49.54 87.61
  Q 49.57 90.16 50.30 91.91
  Q 54.37 101.54 59.54 111.45
  C 61.14 114.52 60.79 117.86 57.27 119.48"
/>
<path stroke="#8b907a" vector-effect="non-scaling-stroke" d="
  M 57.27 119.48
  Q 53.99 119.80 52.39 117.11
  Q 48.84 111.16 43.90 101.70"
/>
<path stroke="#8b907a" vector-effect="non-scaling-stroke" d="
  M 67.20 19.98
  Q 62.99 18.87 58.76 20.05"
/>
<path stroke="#fc6803" vector-effect="non-scaling-stroke" d="
  M 176.21 121.21
  Q 176.26 118.90 175.84 116.70
  Q 175.35 114.07 175.43 112.19
  Q 175.53 110.15 174.93 108.57
  Q 174.31 106.91 174.37 105.32
  Q 174.47 102.72 174.17 100.32
  Q 174.11 99.82 173.62 99.91
  Q 173.26 99.98 173.07 99.69
  Q 172.02 98.08 171.64 99.97
  Q 170.96 103.37 168.00 104.90
  Q 167.46 105.18 166.85 105.09
  Q 166.59 105.05 166.39 105.15
  Q 165.98 105.36 165.89 105.81
  L 163.82 115.98"
/>
<path stroke="#8b907a" vector-effect="non-scaling-stroke" d="
  M 35.09 87.04
  L 43.90 101.70"
/>
<path stroke="#fda96a" vector-effect="non-scaling-stroke" d="
  M 9.95 101.11
  L 3.44 101.54"
/>
<path stroke="#fd8303" vector-effect="non-scaling-stroke" d="
  M 24.68 128.12
  Q 30.90 142.09 35.29 149.21
  Q 39.82 156.55 43.64 160.43
  Q 65.25 182.40 95.93 180.69
  Q 101.56 180.38 107.38 179.04
  C 119.49 176.26 130.93 171.78 140.06 163.71
  Q 150.18 154.75 156.87 142.35
  Q 158.30 139.71 160.55 133.28"
/>
<path stroke="#fd8303" vector-effect="non-scaling-stroke" d="
  M 132.36 131.53
  C 130.81 145.42 120.77 159.19 106.29 160.88
  C 95.42 162.16 85.50 156.94 81.08 147.15
  C 78.29 140.97 78.95 134.17 81.76 128.09"
/>
<path stroke="#8b907a" vector-effect="non-scaling-stroke" d="
  M 34.78 86.63
  Q 29.11 78.51 18.62 79.10"
/>
<path stroke="#8b907a" vector-effect="non-scaling-stroke" d="
  M 18.02 79.13
  Q 12.41 80.10 8.00 83.92"
/>
<path stroke="#815c04" vector-effect="non-scaling-stroke" d="
  M 148.22 196.43
  C 116.70 195.50 85.04 195.42 49.68 195.53"
/>
<path stroke="#7e2d03" vector-effect="non-scaling-stroke" d="
  M 49.68 195.53
  Q 42.64 196.04 40.69 202.72
  C 37.77 212.73 45.54 221.71 55.36 221.73
  Q 94.92 221.81 138.93 221.67
  C 148.60 221.64 156.65 215.59 155.97 205.45
  Q 155.76 202.25 153.96 199.77
  Q 151.78 196.77 148.22 196.43"
/>
<path stroke="#fd8303" vector-effect="non-scaling-stroke" d="
  M 49.68 195.53
  Q 49.32 198.84 49.06 201.99
  Q 48.37 210.46 56.32 210.47
  Q 98.81 210.51 140.93 210.47
  Q 144.86 210.46 146.91 207.91
  Q 148.34 206.12 148.39 202.36
  Q 148.43 199.37 148.22 196.43"
/>
</g>
<path fill="#172221" d="
  M 100.31 3.09
  Q 95.79 2.39 91.45 4.21
  Q 92.57 2.30 94.06 2.61
  Q 94.54 2.71 94.99 2.52
  Q 97.10 1.62 99.44 2.11
  Q 99.82 2.19 100.00 2.46
  Q 100.18 2.72 100.31 3.09
  Z"
/>
<path fill="#172221" d="
  M 103.59 3.97
  Q 101.87 3.86 100.65 3.04
  Q 102.07 2.20 103.59 3.97
  Z"
/>
<path fill="#fffdd2" d="
  M 100.31 3.09
  Q 100.15 2.89 100.65 3.04
  Q 101.87 3.86 103.59 3.97
  Q 104.61 4.85 105.71 5.06
  Q 115.33 12.68 111.31 25.60
  Q 109.76 22.51 108.90 19.10
  Q 108.23 16.45 104.68 13.52
  Q 99.41 9.17 93.32 12.30
  A 25.56 25.42 -77.2 0 0 89.62 14.64
  Q 87.16 16.50 84.46 22.84
  Q 80.68 10.49 91.51 4.05
  Q 91.48 4.13 91.45 4.21
  Q 95.79 2.39 100.31 3.09
  Z"
/>
<path fill="#172221" d="
  M 91.51 4.05
  Q 80.68 10.49 84.46 22.84
  Q 84.56 76.98 84.49 98.50
  Q 84.49 99.27 83.72 100.39
  Q 81.08 103.12 78.19 101.87
  C 74.78 100.39 75.12 96.51 75.15 94.00
  Q 75.47 69.82 75.34 44.50
  Q 75.31 39.73 74.70 35.04
  L 74.95 28.50
  Q 75.97 29.03 76.01 29.75
  Q 76.15 31.93 76.00 34.41
  C 75.90 36.02 76.80 37.10 76.23 38.76
  Q 76.06 39.25 76.29 39.72
  Q 76.94 40.96 76.92 42.29
  C 76.65 60.93 77.22 77.40 76.73 95.43
  C 76.70 96.47 76.95 97.25 77.00 98.25
  Q 77.02 98.74 77.38 99.07
  Q 79.85 101.39 82.58 99.11
  Q 83.01 98.75 83.01 98.19
  L 82.97 13.73
  Q 82.97 13.35 83.25 13.08
  L 83.67 12.69
  A 0.49 0.49 0.0 0 0 83.60 11.92
  Q 83.14 11.64 83.50 11.25
  Q 85.03 9.61 85.99 7.72
  Q 86.43 6.83 87.11 6.36
  Q 87.84 5.86 88.60 5.36
  Q 89.82 4.56 91.51 4.05
  Z"
/>
<path fill="#172221" d="
  M 105.71 5.06
  Q 107.84 4.74 108.77 7.11
  Q 108.95 7.59 109.34 7.91
  L 110.66 9.03
  Q 111.08 9.39 110.97 9.94
  Q 110.85 10.55 111.33 10.93
  Q 111.74 11.24 111.96 11.70
  Q 113.10 14.01 113.02 16.24
  Q 113.00 16.77 113.24 17.25
  Q 113.74 18.21 113.16 19.15
  Q 112.96 19.47 113.18 19.78
  Q 113.96 20.92 113.24 22.21
  A 2.18 2.17 59.5 0 0 112.97 23.26
  Q 113.09 48.56 112.90 76.79
  Q 112.88 79.66 115.62 81.05
  Q 116.09 81.28 116.62 81.16
  Q 118.97 80.59 118.98 78.16
  Q 119.06 56.12 118.98 36.98
  C 118.98 36.31 119.20 35.59 119.68 35.11
  A 0.59 0.58 41.4 0 0 119.62 34.23
  Q 118.76 33.59 118.99 32.49
  Q 119.46 30.23 119.52 27.75
  A 0.64 0.64 0.0 0 1 119.98 27.15
  L 120.56 26.98
  Q 121.30 26.77 120.88 26.12
  Q 120.78 25.97 120.59 25.95
  Q 120.18 25.92 120.25 25.52
  Q 120.31 25.15 120.64 24.97
  A 0.74 0.74 0.0 0 0 121.00 24.19
  Q 120.73 22.78 122.14 22.62
  A 0.90 0.89 4.3 0 0 122.90 21.97
  Q 123.38 20.24 125.20 20.42
  A 1.63 1.58 -55.7 0 0 126.13 20.23
  Q 126.67 19.92 127.01 19.42
  Q 127.30 18.96 127.82 19.13
  Q 128.59 19.38 129.57 19.19
  Q 134.17 18.27 138.33 20.68
  Q 138.75 20.93 138.91 21.39
  L 139.12 22.04
  C 132.94 18.63 124.48 19.24 121.39 26.14
  Q 120.46 28.20 120.56 31.50
  Q 120.64 34.23 120.86 36.99
  Q 120.30 57.52 120.94 77.99
  Q 121.05 81.34 118.31 82.35
  Q 114.29 83.84 112.03 80.22
  Q 111.31 78.45 111.33 76.50
  Q 111.53 50.87 111.31 25.60
  Q 115.33 12.68 105.71 5.06
  Z"
/>
<path fill="#ffcf10" d="
  M 111.31 25.60
  Q 111.53 50.87 111.33 76.50
  Q 111.31 78.45 112.03 80.22
  Q 111.36 80.49 111.69 81.29
  Q 111.85 81.67 111.43 81.66
  Q 110.54 81.61 109.87 82.30
  Q 109.53 82.66 109.04 82.78
  Q 107.24 83.23 105.42 82.93
  Q 105.01 82.86 104.61 82.91
  Q 104.24 82.96 103.95 83.18
  Q 103.52 83.51 103.05 83.24
  Q 100.77 81.93 98.12 82.47
  Q 94.11 83.28 90.78 81.00
  Q 90.36 80.71 89.89 80.87
  A 0.39 0.38 -17.9 0 1 89.41 80.63
  Q 89.05 79.63 88.02 79.60
  A 0.64 0.64 0.0 0 1 87.46 79.24
  L 86.87 78.04
  Q 86.44 77.17 86.41 78.14
  Q 86.34 80.41 86.40 82.61
  Q 86.41 82.69 86.34 82.66
  Q 86.30 82.64 86.28 82.60
  Q 86.24 82.55 86.24 82.48
  Q 86.26 81.76 86.26 81.07
  Q 86.26 80.98 86.17 80.96
  Q 86.12 80.95 86.09 81.00
  Q 86.07 81.05 86.07 81.09
  Q 86.26 91.51 85.65 97.88
  Q 85.44 100.00 83.72 100.39
  Q 84.49 99.27 84.49 98.50
  Q 84.56 76.98 84.46 22.84
  Q 87.16 16.50 89.62 14.64
  A 25.56 25.42 -77.2 0 1 93.32 12.30
  Q 99.41 9.17 104.68 13.52
  Q 108.23 16.45 108.90 19.10
  Q 109.76 22.51 111.31 25.60
  Z"
/>
<path fill="#172221" d="
  M 67.20 19.98
  Q 62.99 18.87 58.76 20.05
  Q 59.29 18.84 60.50 18.71
  Q 62.59 18.49 65.71 18.59
  Q 66.38 18.61 66.68 18.97
  Q 66.99 19.35 67.20 19.98
  Z"
/>
<path fill="#fffdd2" d="
  M 67.20 19.98
  L 69.61 21.16
  Q 71.66 22.65 73.10 24.62
  C 73.81 25.58 73.91 26.88 74.88 27.83
  L 74.95 28.50
  L 74.70 35.04
  Q 74.78 36.65 73.27 36.79
  A 1.71 1.70 -14.8 0 1 71.56 35.80
  C 68.86 29.96 64.05 24.70 57.43 30.37
  Q 54.60 32.79 52.28 35.67
  A 2.57 2.23 -65.9 0 1 50.23 36.62
  Q 49.86 36.58 49.80 35.28
  Q 49.30 24.61 58.26 20.13
  Q 58.70 19.89 58.76 20.05
  Q 62.99 18.87 67.20 19.98
  Z"
/>
<path fill="#172221" d="
  M 58.26 20.13
  Q 49.30 24.61 49.80 35.28
  Q 49.25 61.45 49.54 87.61
  Q 49.57 90.16 50.30 91.91
  Q 54.37 101.54 59.54 111.45
  C 61.14 114.52 60.79 117.86 57.27 119.48
  Q 53.99 119.80 52.39 117.11
  Q 48.84 111.16 43.90 101.70
  Q 46.35 103.19 47.29 106.09
  Q 47.45 106.57 47.85 106.86
  Q 49.69 108.21 49.41 110.08
  Q 49.32 110.69 49.81 111.08
  L 51.01 112.03
  A 1.52 1.51 12.6 0 1 51.55 112.88
  Q 52.27 116.06 54.42 117.52
  C 57.45 119.59 60.09 115.70 58.29 112.94
  Q 57.99 112.48 58.02 111.93
  Q 58.06 111.25 57.47 110.93
  Q 56.98 110.65 57.06 110.10
  Q 57.16 109.36 56.51 109.03
  Q 55.93 108.73 56.01 108.08
  C 56.18 106.76 55.05 106.27 55.00 104.96
  A 1.25 1.23 -67.8 0 0 54.68 104.18
  Q 53.38 102.72 52.98 100.90
  A 1.96 1.89 17.3 0 0 52.48 99.99
  Q 51.68 99.18 51.29 98.19
  Q 50.25 95.55 48.87 93.02
  Q 47.99 91.39 47.99 89.51
  Q 48.01 63.07 48.02 39.34
  C 48.02 36.46 48.83 33.69 49.05 30.84
  Q 49.08 30.36 49.36 29.97
  Q 49.97 29.10 49.97 27.95
  A 1.37 1.35 -19.9 0 1 50.47 26.90
  Q 50.98 26.48 50.58 25.98
  Q 50.21 25.51 50.68 25.16
  Q 53.43 23.05 56.06 20.31
  Q 56.83 19.50 58.26 20.13
  Z"
/>
<path fill="#fffdd2" d="
  M 139.12 22.04
  Q 146.30 27.59 144.62 37.58
  Q 143.15 35.96 142.69 32.55
  Q 142.63 32.06 142.30 31.69
  Q 138.85 27.82 133.46 27.89
  Q 130.90 27.92 129.03 29.75
  C 126.36 32.36 124.38 34.83 120.86 36.99
  Q 120.64 34.23 120.56 31.50
  Q 120.46 28.20 121.39 26.14
  C 124.48 19.24 132.94 18.63 139.12 22.04
  Z"
/>
<path fill="#172221" d="
  M 69.61 21.16
  Q 71.48 20.59 71.98 22.41
  Q 72.12 22.91 72.60 23.12
  Q 73.98 23.71 73.98 25.14
  Q 73.98 25.68 74.44 25.97
  Q 75.31 26.51 74.88 27.83
  C 73.91 26.88 73.81 25.58 73.10 24.62
  Q 71.66 22.65 69.61 21.16
  Z"
/>
<path fill="#172221" d="
  M 7.86 84.09
  Q 1.48 91.25 2.84 100.75
  Q 2.91 101.23 3.44 101.54
  Q 3.20 102.31 3.50 103.26
  Q 5.16 108.57 7.60 113.86
  Q 16.26 132.68 25.26 151.77
  C 28.42 158.45 32.57 165.03 37.98 170.04
  C 41.13 172.95 44.13 176.25 48.02 178.11
  A 1.89 1.89 0.0 0 1 49.09 179.83
  L 49.05 185.52
  A 1.72 1.71 -90.0 0 0 50.77 187.25
  L 147.00 186.80
  Q 147.90 186.80 147.89 185.89
  Q 147.85 182.50 148.30 179.14
  Q 148.38 178.52 148.92 178.19
  C 167.55 166.79 177.28 142.64 176.21 121.21
  L 176.46 70.65
  Q 177.13 64.34 175.75 59.85
  Q 173.92 54.20 170.24 51.71
  Q 160.49 45.11 154.09 55.04
  Q 152.47 57.55 153.19 62.01
  Q 152.90 79.66 152.69 98.31
  Q 152.65 101.83 148.37 102.73
  Q 148.25 102.76 148.13 102.73
  Q 143.89 101.59 143.85 97.85
  Q 143.48 66.98 144.62 37.58
  Q 146.30 27.59 139.12 22.04
  Q 140.64 21.20 141.19 22.39
  A 1.20 1.19 -5.3 0 0 141.98 23.04
  Q 143.00 23.30 143.14 24.30
  Q 143.41 26.39 144.72 28.11
  A 1.47 1.47 0.0 0 1 145.03 29.04
  Q 145.01 30.11 145.70 30.95
  A 1.30 1.29 -65.0 0 1 146.00 31.78
  L 145.39 97.26
  Q 145.36 99.85 147.83 100.67
  Q 148.56 100.91 149.29 100.67
  Q 151.03 100.10 151.03 98.27
  C 151.08 89.18 151.01 79.92 151.68 70.64
  Q 152.11 64.62 151.92 58.92
  Q 151.90 58.38 152.34 58.06
  L 152.80 57.74
  A 0.54 0.54 0.0 0 0 152.95 57.03
  Q 152.23 55.82 153.31 55.02
  Q 153.76 54.69 153.76 54.14
  Q 153.76 53.98 153.69 53.82
  Q 153.54 53.47 153.86 53.25
  Q 155.90 51.93 157.19 49.77
  Q 157.50 49.27 158.04 49.52
  Q 158.24 49.61 158.45 49.57
  Q 158.78 49.52 158.97 49.25
  Q 159.67 48.24 160.84 48.50
  Q 163.08 49.01 165.24 48.36
  Q 165.76 48.20 166.22 48.50
  C 167.58 49.39 169.20 49.72 170.39 50.84
  Q 172.35 52.68 174.03 54.43
  C 175.13 55.56 175.44 57.11 176.63 58.16
  Q 177.01 58.49 177.09 59.00
  C 177.31 60.36 178.02 61.21 178.02 62.60
  Q 177.98 92.60 178.01 124.90
  C 178.01 128.87 177.41 132.99 176.90 136.98
  Q 176.17 142.60 173.19 149.73
  Q 169.59 158.36 164.15 166.73
  C 163.57 167.62 162.54 167.91 162.07 168.75
  Q 160.97 170.71 159.51 172.40
  Q 159.22 172.73 158.80 172.85
  Q 157.74 173.12 157.72 174.22
  Q 157.71 174.99 157.10 174.52
  Q 156.96 174.42 156.79 174.45
  Q 156.35 174.51 156.04 174.84
  Q 153.55 177.53 150.44 179.14
  Q 150.05 179.34 150.01 179.77
  L 149.24 187.25
  A 1.28 1.27 71.3 0 1 148.86 188.03
  Q 148.02 188.82 147.12 188.39
  Q 146.71 188.19 146.26 188.28
  C 145.25 188.49 144.30 188.64 143.27 188.46
  Q 139.78 187.82 136.31 188.36
  Q 133.55 188.79 130.45 188.63
  Q 123.04 188.25 115.75 188.67
  C 113.37 188.81 111.14 188.49 108.75 188.42
  Q 83.64 187.74 73.50 188.26
  Q 62.94 188.80 56.79 188.52
  Q 56.74 188.52 53.25 188.69
  Q 50.44 188.82 48.16 187.01
  Q 47.79 186.72 47.79 186.26
  L 47.72 179.80
  Q 47.72 179.25 47.19 179.09
  C 46.17 178.77 45.23 178.43 44.43 177.70
  Q 41.10 174.69 37.64 171.55
  Q 37.26 171.20 36.77 171.05
  Q 36.31 170.91 36.03 170.53
  Q 34.32 168.21 32.32 165.87
  Q 30.31 163.52 28.63 160.86
  Q 26.99 158.26 25.33 155.48
  Q 24.79 154.60 24.48 153.69
  Q 24.12 152.60 23.40 151.86
  Q 23.05 151.50 23.00 150.99
  C 22.85 149.23 21.14 146.65 20.29 145.00
  Q 20.03 144.49 20.04 143.92
  Q 20.04 143.42 19.64 143.12
  Q 19.20 142.78 19.03 142.27
  C 18.65 141.11 18.22 139.77 17.42 138.82
  Q 17.02 138.34 16.95 137.71
  Q 16.90 137.18 16.61 136.73
  L 15.41 134.83
  Q 15.10 134.33 15.05 133.75
  C 14.91 132.09 13.48 130.87 12.98 129.22
  C 12.49 127.55 11.61 125.16 10.41 123.88
  Q 9.94 123.37 9.93 122.62
  Q 9.93 122.07 9.69 121.58
  Q 7.70 117.48 5.85 113.24
  C 5.31 112.00 4.50 110.79 4.17 109.51
  Q 3.82 108.16 3.26 106.87
  C 2.79 105.81 2.14 104.48 2.10 103.33
  Q 2.04 101.76 1.62 100.22
  C 1.04 98.06 1.84 96.02 2.00 93.83
  A 0.96 0.95 68.1 0 1 2.25 93.24
  Q 3.55 91.88 2.91 89.57
  A 1.28 1.28 0.0 0 1 4.00 87.95
  Q 5.03 87.83 4.64 87.07
  Q 4.33 86.47 4.90 86.10
  Q 5.66 85.63 6.03 84.78
  A 1.17 1.15 -85.9 0 1 6.77 84.13
  Q 7.29 83.98 7.86 84.09
  Z"
/>
<path fill="#ffc105" d="
  M 74.70 35.04
  Q 75.31 39.73 75.34 44.50
  Q 75.47 69.82 75.15 94.00
  C 75.12 96.51 74.78 100.39 78.19 101.87
  Q 81.08 103.12 83.72 100.39
  Q 85.44 100.00 85.65 97.88
  Q 86.26 91.51 86.07 81.09
  Q 86.07 81.05 86.09 81.00
  Q 86.12 80.95 86.17 80.96
  Q 86.26 80.98 86.26 81.07
  Q 86.26 81.76 86.24 82.48
  Q 86.24 82.55 86.28 82.60
  Q 86.30 82.64 86.34 82.66
  Q 86.41 82.69 86.40 82.61
  Q 86.34 80.41 86.41 78.14
  Q 86.44 77.17 86.87 78.04
  L 87.46 79.24
  A 0.64 0.64 0.0 0 0 88.02 79.60
  Q 89.05 79.63 89.41 80.63
  A 0.39 0.38 -17.9 0 0 89.89 80.87
  Q 90.36 80.71 90.78 81.00
  Q 94.11 83.28 98.12 82.47
  Q 100.77 81.93 103.05 83.24
  Q 103.52 83.51 103.95 83.18
  Q 104.24 82.96 104.61 82.91
  Q 105.01 82.86 105.42 82.93
  Q 107.24 83.23 109.04 82.78
  Q 109.53 82.66 109.87 82.30
  Q 110.54 81.61 111.43 81.66
  Q 111.85 81.67 111.69 81.29
  Q 111.36 80.49 112.03 80.22
  Q 114.29 83.84 118.31 82.35
  Q 121.05 81.34 120.94 77.99
  Q 120.30 57.52 120.86 36.99
  C 124.38 34.83 126.36 32.36 129.03 29.75
  Q 130.90 27.92 133.46 27.89
  Q 138.85 27.82 142.30 31.69
  Q 142.63 32.06 142.69 32.55
  Q 143.15 35.96 144.62 37.58
  Q 143.48 66.98 143.85 97.85
  Q 143.89 101.59 148.13 102.73
  Q 148.25 102.76 148.37 102.73
  Q 152.65 101.83 152.69 98.31
  Q 152.90 79.66 153.19 62.01
  Q 153.38 62.83 153.74 63.24
  Q 154.10 63.63 154.60 63.46
  Q 156.83 62.69 157.65 61.90
  Q 160.31 59.35 163.68 57.28
  Q 164.12 57.02 164.62 57.11
  Q 166.49 57.46 168.36 57.71
  Q 169.87 57.92 171.97 58.87
  Q 173.90 59.75 175.75 59.85
  Q 177.13 64.34 176.46 70.65
  L 165.74 70.08
  A 1.23 1.22 -88.0 0 0 164.45 71.29
  L 163.82 115.98
  Q 163.46 125.02 160.55 133.28
  Q 159.59 133.76 158.68 135.78
  A 0.03 0.03 0.0 0 1 158.62 135.78
  Q 158.44 134.46 157.17 134.92
  Q 154.33 135.94 152.47 134.70
  A 0.54 0.53 42.8 0 0 151.85 134.72
  Q 151.53 134.98 151.22 134.77
  Q 151.01 134.62 150.76 134.55
  C 147.85 133.75 145.60 134.66 142.76 134.23
  C 141.04 133.97 139.67 135.03 137.89 134.41
  Q 136.35 133.87 134.63 134.16
  A 1.87 1.86 -7.8 0 1 132.46 132.52
  L 132.36 131.53
  Q 133.67 118.19 127.85 106.22
  Q 127.29 105.08 126.16 104.26
  A 0.55 0.55 0.0 0 0 125.29 104.75
  C 125.83 110.88 121.84 117.77 117.58 121.72
  Q 113.93 125.10 109.87 128.70
  A 0.40 0.40 0.0 0 0 109.92 129.33
  Q 114.03 132.13 114.46 136.45
  C 114.90 140.88 113.89 145.02 110.20 147.96
  Q 104.55 152.48 97.97 149.59
  Q 92.06 147.00 90.39 141.97
  C 88.22 135.49 91.86 130.13 97.71 127.17
  C 103.63 124.18 109.01 121.27 113.74 116.24
  C 124.23 105.08 115.19 92.67 105.43 85.86
  Q 104.43 85.16 104.96 86.26
  C 108.37 93.37 110.37 101.19 105.32 108.04
  Q 102.52 111.84 100.01 113.56
  Q 93.51 118.03 86.97 122.44
  Q 84.59 124.05 81.76 128.09
  Q 77.93 128.44 75.76 127.32
  Q 74.63 126.74 73.70 126.62
  Q 71.89 126.40 71.84 126.38
  Q 67.12 125.15 62.62 124.68
  Q 61.96 124.61 61.37 124.94
  Q 60.09 125.65 59.12 124.50
  Q 58.78 124.10 58.27 124.21
  Q 55.63 124.78 53.94 126.47
  Q 53.61 126.80 53.14 126.76
  Q 51.85 126.66 50.99 127.70
  Q 50.55 128.22 49.85 128.14
  Q 49.51 128.10 49.16 128.12
  Q 42.55 128.45 35.68 128.58
  Q 34.32 128.61 33.03 128.95
  Q 31.57 129.35 29.90 129.03
  Q 29.72 129.00 29.63 128.83
  Q 29.60 128.76 29.63 128.70
  Q 29.85 128.12 29.20 128.12
  Q 26.98 128.12 24.68 128.12
  Q 19.68 118.21 18.15 115.58
  Q 13.49 107.58 11.33 102.42
  Q 11.03 101.71 9.95 101.11
  Q 10.12 101.05 10.23 100.97
  Q 10.48 100.80 10.44 100.49
  Q 9.50 93.75 14.98 89.27
  C 19.13 85.88 25.20 85.82 29.04 89.77
  Q 32.07 92.87 33.93 96.19
  Q 38.92 105.09 43.84 114.12
  Q 45.84 117.79 48.81 121.17
  Q 51.43 124.14 54.70 122.22
  Q 56.42 121.20 57.27 119.48
  C 60.79 117.86 61.14 114.52 59.54 111.45
  Q 54.37 101.54 50.30 91.91
  Q 49.57 90.16 49.54 87.61
  Q 49.25 61.45 49.80 35.28
  Q 49.86 36.58 50.23 36.62
  A 2.57 2.23 -65.9 0 0 52.28 35.67
  Q 54.60 32.79 57.43 30.37
  C 64.05 24.70 68.86 29.96 71.56 35.80
  A 1.71 1.70 -14.8 0 0 73.27 36.79
  Q 74.78 36.65 74.70 35.04
  Z"
/>
<path fill="#fffdd2" d="
  M 175.75 59.85
  Q 173.90 59.75 171.97 58.87
  Q 169.87 57.92 168.36 57.71
  Q 166.49 57.46 164.62 57.11
  Q 164.12 57.02 163.68 57.28
  Q 160.31 59.35 157.65 61.90
  Q 156.83 62.69 154.60 63.46
  Q 154.10 63.63 153.74 63.24
  Q 153.38 62.83 153.19 62.01
  Q 152.47 57.55 154.09 55.04
  Q 160.49 45.11 170.24 51.71
  Q 173.92 54.20 175.75 59.85
  Z"
/>
<path fill="#fe7b03" d="
  M 176.46 70.65
  L 176.21 121.21
  Q 176.26 118.90 175.84 116.70
  Q 175.35 114.07 175.43 112.19
  Q 175.53 110.15 174.93 108.57
  Q 174.31 106.91 174.37 105.32
  Q 174.47 102.72 174.17 100.32
  Q 174.11 99.82 173.62 99.91
  Q 173.26 99.98 173.07 99.69
  Q 172.02 98.08 171.64 99.97
  Q 170.96 103.37 168.00 104.90
  Q 167.46 105.18 166.85 105.09
  Q 166.59 105.05 166.39 105.15
  Q 165.98 105.36 165.89 105.81
  L 163.82 115.98
  L 164.45 71.29
  A 1.23 1.22 -88.0 0 1 165.74 70.08
  L 176.46 70.65
  Z"
/>
<path fill="#172221" d="
  M 18.02 79.13
  Q 12.41 80.10 8.00 83.92
  L 10.17 81.20
  Q 10.50 80.79 11.02 80.74
  Q 11.86 80.65 12.10 79.85
  Q 12.36 78.99 12.88 79.73
  Q 12.97 79.86 13.12 79.92
  Q 13.43 80.04 13.70 79.84
  L 15.78 78.28
  Q 16.22 77.95 16.74 78.11
  Q 17.48 78.34 18.02 79.13
  Z"
/>
<path fill="#172221" d="
  M 34.78 86.63
  Q 29.11 78.51 18.62 79.10
  Q 19.85 76.91 23.10 78.75
  Q 23.57 79.01 24.01 78.72
  L 24.22 78.58
  Q 24.66 78.29 25.14 78.48
  Q 30.03 80.43 33.35 82.97
  Q 33.97 83.44 33.94 84.23
  Q 33.91 84.85 34.49 85.06
  L 34.84 85.20
  Q 35.27 85.36 35.17 85.80
  Q 35.07 86.19 34.78 86.63
  Z"
/>
<path fill="#fffdd2" d="
  M 18.02 79.13
  Q 18.32 78.97 18.62 79.10
  Q 29.11 78.51 34.78 86.63
  Q 34.93 86.32 35.09 87.04
  L 43.90 101.70
  Q 48.84 111.16 52.39 117.11
  Q 53.99 119.80 57.27 119.48
  Q 56.42 121.20 54.70 122.22
  Q 51.43 124.14 48.81 121.17
  Q 45.84 117.79 43.84 114.12
  Q 38.92 105.09 33.93 96.19
  Q 32.07 92.87 29.04 89.77
  C 25.20 85.82 19.13 85.88 14.98 89.27
  Q 9.50 93.75 10.44 100.49
  Q 10.48 100.80 10.23 100.97
  Q 10.12 101.05 9.95 101.11
  L 3.44 101.54
  Q 2.91 101.23 2.84 100.75
  Q 1.48 91.25 7.86 84.09
  Q 8.01 83.28 8.00 83.92
  Q 12.41 80.10 18.02 79.13
  Z"
/>
<path fill="#fa5402" d="
  M 132.36 131.53
  C 130.81 145.42 120.77 159.19 106.29 160.88
  C 95.42 162.16 85.50 156.94 81.08 147.15
  C 78.29 140.97 78.95 134.17 81.76 128.09
  Q 84.59 124.05 86.97 122.44
  Q 93.51 118.03 100.01 113.56
  Q 102.52 111.84 105.32 108.04
  C 110.37 101.19 108.37 93.37 104.96 86.26
  Q 104.43 85.16 105.43 85.86
  C 115.19 92.67 124.23 105.08 113.74 116.24
  C 109.01 121.27 103.63 124.18 97.71 127.17
  C 91.86 130.13 88.22 135.49 90.39 141.97
  Q 92.06 147.00 97.97 149.59
  Q 104.55 152.48 110.20 147.96
  C 113.89 145.02 114.90 140.88 114.46 136.45
  Q 114.03 132.13 109.92 129.33
  A 0.40 0.40 0.0 0 1 109.87 128.70
  Q 113.93 125.10 117.58 121.72
  C 121.84 117.77 125.83 110.88 125.29 104.75
  A 0.55 0.55 0.0 0 1 126.16 104.26
  Q 127.29 105.08 127.85 106.22
  Q 133.67 118.19 132.36 131.53
  Z"
/>
<path fill="#172221" d="
  M 35.09 87.04
  Q 35.95 86.95 36.48 87.41
  C 37.37 88.19 36.76 89.44 38.18 90.14
  Q 38.65 90.37 38.85 90.85
  Q 39.66 92.84 41.20 93.93
  Q 41.62 94.23 41.42 94.71
  Q 40.65 96.52 42.52 97.98
  Q 42.96 98.32 42.98 98.88
  L 43.00 99.17
  Q 43.01 99.63 43.39 99.89
  Q 44.30 100.52 43.90 101.70
  L 35.09 87.04
  Z"
/>
<path fill="#fa5402" d="
  M 176.21 121.21
  C 177.28 142.64 167.55 166.79 148.92 178.19
  Q 148.38 178.52 148.30 179.14
  Q 147.85 182.50 147.89 185.89
  Q 147.90 186.80 147.00 186.80
  L 50.77 187.25
  A 1.72 1.71 -90.0 0 1 49.05 185.52
  L 49.09 179.83
  A 1.89 1.89 0.0 0 0 48.02 178.11
  C 44.13 176.25 41.13 172.95 37.98 170.04
  C 32.57 165.03 28.42 158.45 25.26 151.77
  Q 16.26 132.68 7.60 113.86
  Q 5.16 108.57 3.50 103.26
  Q 3.20 102.31 3.44 101.54
  L 9.95 101.11
  Q 11.03 101.71 11.33 102.42
  Q 13.49 107.58 18.15 115.58
  Q 19.68 118.21 24.68 128.12
  Q 30.90 142.09 35.29 149.21
  Q 39.82 156.55 43.64 160.43
  Q 65.25 182.40 95.93 180.69
  Q 101.56 180.38 107.38 179.04
  C 119.49 176.26 130.93 171.78 140.06 163.71
  Q 150.18 154.75 156.87 142.35
  Q 158.30 139.71 160.55 133.28
  Q 163.46 125.02 163.82 115.98
  L 165.89 105.81
  Q 165.98 105.36 166.39 105.15
  Q 166.59 105.05 166.85 105.09
  Q 167.46 105.18 168.00 104.90
  Q 170.96 103.37 171.64 99.97
  Q 172.02 98.08 173.07 99.69
  Q 173.26 99.98 173.62 99.91
  Q 174.11 99.82 174.17 100.32
  Q 174.47 102.72 174.37 105.32
  Q 174.31 106.91 174.93 108.57
  Q 175.53 110.15 175.43 112.19
  Q 175.35 114.07 175.84 116.70
  Q 176.26 118.90 176.21 121.21
  Z"
/>
<path fill="#ffb204" d="
  M 81.76 128.09
  C 78.95 134.17 78.29 140.97 81.08 147.15
  C 85.50 156.94 95.42 162.16 106.29 160.88
  C 120.77 159.19 130.81 145.42 132.36 131.53
  L 132.46 132.52
  A 1.87 1.86 -7.8 0 0 134.63 134.16
  Q 136.35 133.87 137.89 134.41
  C 139.67 135.03 141.04 133.97 142.76 134.23
  C 145.60 134.66 147.85 133.75 150.76 134.55
  Q 151.01 134.62 151.22 134.77
  Q 151.53 134.98 151.85 134.72
  A 0.54 0.53 42.8 0 1 152.47 134.70
  Q 154.33 135.94 157.17 134.92
  Q 158.44 134.46 158.62 135.78
  A 0.03 0.03 0.0 0 0 158.68 135.78
  Q 159.59 133.76 160.55 133.28
  Q 158.30 139.71 156.87 142.35
  Q 150.18 154.75 140.06 163.71
  C 130.93 171.78 119.49 176.26 107.38 179.04
  Q 101.56 180.38 95.93 180.69
  Q 65.25 182.40 43.64 160.43
  Q 39.82 156.55 35.29 149.21
  Q 30.90 142.09 24.68 128.12
  Q 26.98 128.12 29.20 128.12
  Q 29.85 128.12 29.63 128.70
  Q 29.60 128.76 29.63 128.83
  Q 29.72 129.00 29.90 129.03
  Q 31.57 129.35 33.03 128.95
  Q 34.32 128.61 35.68 128.58
  Q 42.55 128.45 49.16 128.12
  Q 49.51 128.10 49.85 128.14
  Q 50.55 128.22 50.99 127.70
  Q 51.85 126.66 53.14 126.76
  Q 53.61 126.80 53.94 126.47
  Q 55.63 124.78 58.27 124.21
  Q 58.78 124.10 59.12 124.50
  Q 60.09 125.65 61.37 124.94
  Q 61.96 124.61 62.62 124.68
  Q 67.12 125.15 71.84 126.38
  Q 71.89 126.40 73.70 126.62
  Q 74.63 126.74 75.76 127.32
  Q 77.93 128.44 81.76 128.09
  Z"
/>
<path fill="#020504" d="
  M 152.36 196.42
  Q 152.45 196.88 153.00 196.89
  A 0.70 0.68 69.5 0 1 153.53 197.14
  C 154.64 198.46 155.67 200.14 156.99 201.25
  C 157.81 201.93 158.10 203.28 157.87 204.30
  Q 157.29 206.88 157.75 209.20
  Q 157.86 209.74 157.62 210.24
  L 155.02 215.48
  A 1.02 1.01 3.0 0 1 154.46 215.98
  C 153.31 216.42 153.26 217.29 152.37 218.00
  Q 149.24 220.49 145.93 221.89
  Q 142.97 223.15 139.36 223.08
  Q 126.51 222.82 113.63 223.18
  C 104.50 223.44 95.76 223.20 86.96 223.21
  Q 69.57 223.22 53.87 222.91
  Q 53.05 222.89 52.29 222.65
  C 51.54 222.41 50.98 222.56 50.29 222.14
  Q 47.28 220.35 44.65 218.76
  Q 42.90 217.69 41.13 215.91
  Q 40.78 215.56 40.89 215.08
  L 40.95 214.81
  Q 41.01 214.54 40.80 214.35
  C 38.15 211.81 38.28 207.53 38.68 203.90
  C 38.99 201.05 41.30 198.54 43.02 196.43
  Q 43.44 195.91 44.13 195.99
  Q 44.70 196.05 44.98 195.54
  Q 45.37 194.84 46.20 195.00
  Q 46.79 195.12 47.14 194.63
  L 47.30 194.40
  A 0.85 0.84 16.9 0 1 48.00 194.03
  C 70.45 194.00 93.40 194.22 116.18 194.28
  Q 125.16 194.30 133.32 194.76
  Q 141.93 195.24 150.54 195.01
  A 1.82 1.74 -6.0 0 1 152.36 196.42
  Z
  M 148.22 196.43
  C 116.70 195.50 85.04 195.42 49.68 195.53
  Q 42.64 196.04 40.69 202.72
  C 37.77 212.73 45.54 221.71 55.36 221.73
  Q 94.92 221.81 138.93 221.67
  C 148.60 221.64 156.65 215.59 155.97 205.45
  Q 155.76 202.25 153.96 199.77
  Q 151.78 196.77 148.22 196.43
  Z"
/>
<path fill="#fa5402" d="
  M 49.68 195.53
  Q 49.32 198.84 49.06 201.99
  Q 48.37 210.46 56.32 210.47
  Q 98.81 210.51 140.93 210.47
  Q 144.86 210.46 146.91 207.91
  Q 148.34 206.12 148.39 202.36
  Q 148.43 199.37 148.22 196.43
  Q 151.78 196.77 153.96 199.77
  Q 155.76 202.25 155.97 205.45
  C 156.65 215.59 148.60 221.64 138.93 221.67
  Q 94.92 221.81 55.36 221.73
  C 45.54 221.71 37.77 212.73 40.69 202.72
  Q 42.64 196.04 49.68 195.53
  Z"
/>
<path fill="#ffb204" d="
  M 49.68 195.53
  C 85.04 195.42 116.70 195.50 148.22 196.43
  Q 148.43 199.37 148.39 202.36
  Q 148.34 206.12 146.91 207.91
  Q 144.86 210.46 140.93 210.47
  Q 98.81 210.51 56.32 210.47
  Q 48.37 210.46 49.06 201.99
  Q 49.32 198.84 49.68 195.53
  Z"
/>
</svg>
